# xmcd CD database file
#
# Track frame offsets:
#	150
#	25395
#	55408
#	73910
#	92670
#	112115
#	134018
#	150063
#	167420
#	189930
#	211300
#	233250
#
# Disc length: 3382 seconds
#
# Revision: 3
# Processed by: cddbd v1.5.1PL0 Copyright (c) Steve Scherf et al.
# Submitted via: CDex 1.51
#
DISCID=990d340c
DTITLE=John Sharp - Better Than Dreams
DYEAR=1993
DGENRE=Blues
TTITLE0=Better than Dreams
TTITLE1=Calypso Lips
TTITLE2=Toni-Lynn
TTITLE3=Those White Collar Blues
TTITLE4=Runaway Bay
TTITLE5=When I Fall in Love
TTITLE6=Walking Distance
TTITLE7=Calico Hepcat
TTITLE8=World View
TTITLE9=Alice in Wonderland
TTITLE10=Happily Ever After
TTITLE11=But Beatiful
EXTD=YEAR: 1993
EXTT0=
EXTT1=
EXTT2=
EXTT3=
EXTT4=
EXTT5=
EXTT6=
EXTT7=
EXTT8=
EXTT9=
EXTT10=
EXTT11=
PLAYORDER=
